<svg id="Layer_1" data-name="Layer 1" xmlns="http://www.w3.org/2000/svg" viewBox="0 0 512 512"><defs><style>.cls-1{fill:#141f38;}</style></defs><title>courier-outline</title><path class="cls-1" d="M320,310.18V277.27A128,128,0,0,0,384,166.4V153.6a12.8,12.8,0,1,0,0-25.6,128,128,0,0,0-256,0,12.8,12.8,0,1,0,0,25.6v12.8a128,128,0,0,0,64,110.87v32.91A172.84,172.84,0,0,0,51.2,480a32,32,0,0,0,32,32H428.8a32,32,0,0,0,32-32A172.84,172.84,0,0,0,320,310.18ZM256,25.6a102.52,102.52,0,0,1,102.37,99.89c-7.64-.25-15.06-5.19-23.62-10.88a146.77,146.77,0,0,0-15.69-9.5,151.68,151.68,0,0,0-62.65-15.5H256a151.68,151.68,0,0,0-62.65,15.5,146.49,146.49,0,0,0-15.69,9.51c-8.71,5.8-16.24,10.81-24,10.89A102.52,102.52,0,0,1,256,25.6ZM153.6,166.4V151.09c21.87-.07,36.54-15.77,51.2-23.09A127.55,127.55,0,0,1,256,115.2h.41a127.55,127.55,0,0,1,51.2,12.8c14.56,7.28,29.15,22.81,50.79,23.08V166.4a102.4,102.4,0,1,1-204.8,0ZM256,294.4a127.94,127.94,0,0,0,38.4-5.86v29.77l-38.4,23-38.4-23V288.54A127.94,127.94,0,0,0,256,294.4Zm51.2,192V467.2a6.41,6.41,0,0,1,6.4-6.4H352a6.41,6.41,0,0,1,6.4,6.4v19.2Zm121.6,0H384V467.2a32,32,0,0,0-32-32H313.6a32,32,0,0,0-32,32v19.2H83.2a6.41,6.41,0,0,1-6.4-6.4c0-71.72,51.56-131.61,119.56-144.58L256,371.2l59.64-35.78c68,13,119.56,72.86,119.56,144.58A6.41,6.41,0,0,1,428.8,486.4Z"/></svg>