<svg id="Layer_1" enable-background="new 0 0 128 128" viewBox="0 0 128 128" xmlns="http://www.w3.org/2000/svg" xmlns:xlink="http://www.w3.org/1999/xlink"><linearGradient id="SVGID_1_" gradientTransform="matrix(1 0 0 -1 0 130)" gradientUnits="userSpaceOnUse" x1="100.897" x2="20.054" y1="29.104" y2="109.946"><stop offset="0" stop-color="#de5b5b"/><stop offset="1" stop-color="#ecbd2c"/></linearGradient><path d="m89.2 26.7c0-1 .8-1.7 1.7-1.8h.9c1 0 1.8.8 1.8 1.8s-.8 1.8-1.8 1.8h-.9c-.9-.1-1.7-.9-1.7-1.8zm-73.3 52.7c1 0 1.7-.8 1.8-1.7v-49.3h65.8c1 0 1.8-.8 1.8-1.8s-.8-1.8-1.8-1.8h-67.6c-1 0-1.8.8-1.8 1.8v50.9c0 1.1.8 1.9 1.8 1.9zm11-47.2c-1.6 0-2.9 1.3-2.9 2.9s1.3 2.9 2.9 2.9 2.9-1.3 2.9-2.9-1.3-2.9-2.9-2.9zm11.7 0c-1.6 0-2.9 1.3-2.9 2.9s1.3 2.9 2.9 2.9 2.9-1.3 2.9-2.9-1.3-2.9-2.9-2.9zm11.7 0c-1.6 0-2.9 1.3-2.9 2.9s1.3 2.9 2.9 2.9 2.9-1.3 2.9-2.9-1.3-2.9-2.9-2.9zm-34.4 54.6c1 0 1.8-.8 1.8-1.8v-1c0-1-.8-1.8-1.8-1.8s-1.8.8-1.8 1.8v1c.1 1 .8 1.8 1.8 1.8zm96.2-61.9h-11.8c-1 0-1.8.8-1.8 1.8s.8 1.8 1.8 1.8h10v13.4h-86.3c-1 0-1.8.8-1.8 1.8s.8 1.8 1.8 1.8h86.3v41.1l-10.5 10.5v-8.1h3.8c1 0 1.8-.8 1.8-1.8s-.8-1.8-1.8-1.8h-5.6c-1 0-1.7.8-1.8 1.7v12.3h-78.6v-7.9c0-1-.8-1.8-1.8-1.8s-1.8.8-1.8 1.8v9.7c0 1 .8 1.8 1.8 1.8h82.2c.5 0 .9-.2 1.2-.5l14.1-14.1c.3-.3.5-.8.5-1.2v-60.5c0-1-.7-1.8-1.7-1.8zm-64.8 34.3-10.3 15.1v4h9.7v4.7h4.4v-4.8h2.9v-4h-2.9v-15zm-.5 15.1h-5.5l5.5-8.1zm17.2 9.1c2.1 0 4.1-.8 5.4-2.4 1.6-2 2.3-5.2 2.3-9.7s-.8-7.7-2.3-9.7c-1.4-1.6-3.4-2.5-5.4-2.5-2.8 0-4.6 1.3-5.5 2.5-1.4 2.1-2.2 5.1-2.2 9.5 0 4.6.7 7.7 2.1 9.5 1.3 1.9 3.4 2.8 5.6 2.8zm-2.5-18c.3-1.1 1-2.4 2.5-2.4 1.8 0 2.4 1.8 2.5 2.6.4 1.9.4 3.8.4 5.7 0 2-.1 4-.5 5.9-.1.7-.5 1.4-1 1.9-.9.7-2.1.7-2.9 0-.6-.6-.9-1.3-1.1-2.1-.4-1.9-.4-3.8-.4-5.7 0-2 .1-4 .5-5.9zm22.7-6.2-10.3 15.1v4h9.7v4.7h4.4v-4.8h3v-4h-3v-15zm-.6 15.1h-5.5l5.5-8.1z" fill="url(#SVGID_1_)"/></svg>