<?xml version="1.0"?>
<svg xmlns="http://www.w3.org/2000/svg" xmlns:xlink="http://www.w3.org/1999/xlink" viewBox="0 0 512 512" width="512" height="512"><defs><linearGradient id="linear-gradient" x1="112.843" y1="429.618" x2="429.893" y2="112.568" gradientUnits="userSpaceOnUse"><stop offset="0" stop-color="#41dfd0"/><stop offset="1" stop-color="#ee83ef"/></linearGradient></defs><g id="gradient"><path d="M208,176a16,16,0,1,1,16-16A16,16,0,0,1,208,176Zm72-32a16,16,0,1,0,16,16A16,16,0,0,0,280,144Zm-13.657,50.343a37.294,37.294,0,0,1-52.686,0,8,8,0,0,0-11.314,11.314,53.318,53.318,0,0,0,75.314,0,8,8,0,0,0-11.314-11.314ZM140.527,385.215c-3.434-2.358-6.832-4.872-10.1-7.473a8,8,0,1,0-9.969,12.516c3.56,2.835,7.265,5.577,11.011,8.148a8,8,0,1,0,9.054-13.191Zm91.815,30.621a174.8,174.8,0,0,1-61.209-13.817,8,8,0,0,0-6.266,14.722,190.762,190.762,0,0,0,66.791,15.081c.116,0,.233.007.348.007a8,8,0,0,0,.336-15.993ZM496,355v42a8,8,0,0,1-6.431,7.845L461.306,410.5q-.291.719-.592,1.43L476.7,435.909a8,8,0,0,1-1,10.1L446,475.7a8,8,0,0,1-10.1,1l-23.981-15.987q-.714.3-1.431.593l-5.652,28.262A8,8,0,0,1,397,496H355a8,8,0,0,1-7.845-6.431L341.5,461.307q-.719-.293-1.431-.593L316.091,476.7a8,8,0,0,1-10.1-1l-17.311-17.311A215.293,215.293,0,0,1,240.033,464H240A224,224,0,0,1,81.608,81.608a224.734,224.734,0,0,1,318.644,1.325C442.077,125.27,464.717,181.085,464,240.1a224.391,224.391,0,0,1-5.885,48.31L475.7,306a8,8,0,0,1,1,10.1l-15.987,23.982q.3.713.592,1.43l28.263,5.652A8,8,0,0,1,496,355ZM67.606,356.461a175.832,175.832,0,0,1,92.88-121.508,104,104,0,1,1,159.028,0,175.607,175.607,0,0,1,32.776,21.521A8,8,0,0,1,355,256h42a8,8,0,0,1,7.845,6.431l5.652,28.263q.719.291,1.43.592L435.909,275.3a8,8,0,0,1,8.636-.147A208.5,208.5,0,0,0,448,239.9c.664-54.7-20.335-106.456-59.131-145.725A207.764,207.764,0,0,0,240,32C125.309,32,32,125.309,32,240A206.5,206.5,0,0,0,67.606,356.461ZM328,168a88,88,0,1,0-88,88A88.1,88.1,0,0,0,328,168ZM291.286,411.927q-.3-.713-.592-1.43l-28.263-5.652A8,8,0,0,1,256,397V355a8,8,0,0,1,6.431-7.845l28.263-5.652q.291-.719.592-1.43L275.3,316.091a8,8,0,0,1,1-10.1L306,276.3a8,8,0,0,1,10.1-1l23.982,15.987q.713-.3,1.43-.592l3.825-19.128a159.724,159.724,0,0,0-37.712-24.613,103.79,103.79,0,0,1-135.233,0A159.806,159.806,0,0,0,81.012,374.109q5.656,6.684,11.91,12.96A206.7,206.7,0,0,0,240,448h.032a198.905,198.905,0,0,0,35.29-3.184,8,8,0,0,1-.025-8.907ZM480,361.559l-26.188-5.238a8,8,0,0,1-5.99-5.225,75.643,75.643,0,0,0-3.426-8.268,8,8,0,0,1,.541-7.933l14.814-22.222-20.424-20.424-22.222,14.814a7.993,7.993,0,0,1-7.933.541,75.643,75.643,0,0,0-8.268-3.426,8,8,0,0,1-5.225-5.99L390.441,272H362.092a7.918,7.918,0,0,1-.863,1.646l-4.908,24.542a8,8,0,0,1-5.225,5.99,75.643,75.643,0,0,0-8.268,3.426,7.993,7.993,0,0,1-7.933-.541l-22.222-14.814-20.424,20.424L307.063,334.9a8,8,0,0,1,.541,7.933,75.643,75.643,0,0,0-3.426,8.268,8,8,0,0,1-5.99,5.225L272,361.559v28.882l26.188,5.238a8,8,0,0,1,5.99,5.225,75.643,75.643,0,0,0,3.426,8.268,8,8,0,0,1-.541,7.933l-14.814,22.222,20.424,20.424L334.9,444.937a8,8,0,0,1,7.933-.541,75.551,75.551,0,0,0,8.27,3.427,8,8,0,0,1,5.223,5.989L361.559,480h28.882l5.238-26.188a8,8,0,0,1,5.223-5.989,75.551,75.551,0,0,0,8.27-3.427,8,8,0,0,1,7.933.541l22.222,14.814,20.424-20.424-14.814-22.222a8,8,0,0,1-.541-7.933,75.643,75.643,0,0,0,3.426-8.268,8,8,0,0,1,5.99-5.225L480,390.441ZM376,344a32,32,0,1,1-32,32A32.036,32.036,0,0,1,376,344Zm0,16a16,16,0,1,0,16,16A16.019,16.019,0,0,0,376,360Zm56,8a8,8,0,0,0-8,8,48,48,0,1,1-48-48,8,8,0,0,0,0-16,64,64,0,1,0,64,64A8,8,0,0,0,432,368Z" style="fill:url(#linear-gradient)"/></g></svg>
